HIERARCHY
ROOT hip
{
  OFFSET 0 0 0
  CHANNELS 6 Xposition Yposition Zposition Zrotation Yrotation Xrotation
  JOINT abdomen
  {
    OFFSET 0 20.6881 -0.73152
    CHANNELS 3 Zrotation Xrotation Yrotation
    JOINT chest
    {
      OFFSET 0 11.7043 -0.48768
      CHANNELS 3 Zrotation Xrotation Yrotation
      JOINT neck
      {
        OFFSET 0 22.1894 -2.19456
        CHANNELS 3 Zrotation Xrotation Yrotation
        JOINT head
        {
          OFFSET -0.24384 7.07133 1.2192
          CHANNELS 3 Zrotation Xrotation Yrotation
          JOINT leftEye
          {
            OFFSET 4.14528 8.04674 8.04672
            CHANNELS 3 Zrotation Xrotation Yrotation
            End Site
            {
              OFFSET 1 0 0
            }
          }
          JOINT rightEye
          {
            OFFSET -3.6576 8.04674 8.04672
            CHANNELS 3 Zrotation Xrotation Yrotation
            End Site
            {
              OFFSET 1 0 0
            }
          }
        }
      }
      JOINT rCollar
      {
        OFFSET -2.68224 19.2634 -4.8768
        CHANNELS 3 Zrotation Xrotation Yrotation
        JOINT rShldr
        {
          OFFSET -8.77824 -1.95073 1.46304
          CHANNELS 3 Zrotation Xrotation Yrotation
          JOINT rForeArm
          {
            OFFSET -28.1742 -1.7115 0.48768
            CHANNELS 3 Zrotation Xrotation Yrotation
            JOINT rHand
            {
              OFFSET -22.5879 0.773209 7.07136
              CHANNELS 3 Zrotation Xrotation Yrotation
              JOINT rThumb1
              {
                OFFSET -1.2192 -0.487915 3.41376
                CHANNELS 3 Zrotation Xrotation Yrotation
                JOINT rThumb2
                {
                  OFFSET -3.37035 -0.52449 3.41376
                  CHANNELS 3 Zrotation Xrotation Yrotation
                  End Site
                  {
                    OFFSET -1.78271 -1.18214 1.43049
                  }
                }
              }
              JOINT rIndex1
              {
                OFFSET -7.75947 0.938293 5.60832
                CHANNELS 3 Zrotation Xrotation Yrotation
                JOINT rIndex2
                {
                  OFFSET -2.54057 -0.884171 1.56538
                  CHANNELS 3 Zrotation Xrotation Yrotation
                  End Site
                  {
                    OFFSET -1.62519 -0.234802 1.16502
                  }
                }
              }
              JOINT rMid1
              {
                OFFSET -8.24714 1.18213 3.41376
                CHANNELS 3 Zrotation Xrotation Yrotation
                JOINT rMid2
                {
                  OFFSET -3.10165 -0.590103 1.0647
                  CHANNELS 3 Zrotation Xrotation Yrotation
                  End Site
                  {
                    OFFSET -2.48547 -0.328903 0.83742
                  }
                }
              }
              JOINT rRing1
              {
                OFFSET -8.82822 0.546677 1.51678
                CHANNELS 3 Zrotation Xrotation Yrotation
                JOINT rRing2
                {
                  OFFSET -2.60934 -0.819778 -0.0198488
                  CHANNELS 3 Zrotation Xrotation Yrotation
                  End Site
                  {
                    OFFSET -2.33842 -0.294052 0.168128
                  }
                }
              }
              JOINT rPinky1
              {
                OFFSET -8.27202 -0.0477905 -0.4584
                CHANNELS 3 Zrotation Xrotation Yrotation
                JOINT rPinky2
                {
                  OFFSET -1.82734 -0.647385 -0.700984
                  CHANNELS 3 Zrotation Xrotation Yrotation
                  End Site
                  {
                    OFFSET -1.69225 -0.51767 -0.607171
                  }
                }
              }
            }
          }
        }
      }
      JOINT lCollar
      {
        OFFSET 2.68224 19.2634 -4.8768
        CHANNELS 3 Zrotation Xrotation Yrotation
        JOINT lShldr
        {
          OFFSET 8.77824 -1.95073 1.46304
          CHANNELS 3 Zrotation Xrotation Yrotation
          JOINT lForeArm
          {
            OFFSET 28.1742 -1.7115 0.48768
            CHANNELS 3 Zrotation Xrotation Yrotation
            JOINT lHand
            {
              OFFSET 22.5879 0.773209 7.07136
              CHANNELS 3 Zrotation Xrotation Yrotation
              JOINT lThumb1
              {
                OFFSET 1.2192 -0.487915 3.41376
                CHANNELS 3 Zrotation Xrotation Yrotation
                JOINT lThumb2
                {
                  OFFSET 3.37035 -0.52449 3.41376
                  CHANNELS 3 Zrotation Xrotation Yrotation
                  End Site
                  {
                    OFFSET 1.78271 -1.18214 1.43049
                  }
                }
              }
              JOINT lIndex1
              {
                OFFSET 7.75947 0.938293 5.60832
                CHANNELS 3 Zrotation Xrotation Yrotation
                JOINT lIndex2
                {
                  OFFSET 2.54057 -0.884171 1.56538
                  CHANNELS 3 Zrotation Xrotation Yrotation
                  End Site
                  {
                    OFFSET 1.62519 -0.234802 1.16502
                  }
                }
              }
              JOINT lMid1
              {
                OFFSET 8.24714 1.18213 3.41376
                CHANNELS 3 Zrotation Xrotation Yrotation
                JOINT lMid2
                {
                  OFFSET 3.10165 -0.590103 1.0647
                  CHANNELS 3 Zrotation Xrotation Yrotation
                  End Site
                  {
                    OFFSET 2.48547 -0.328903 0.83742
                  }
                }
              }
              JOINT lRing1
              {
                OFFSET 8.82822 0.546677 1.51678
                CHANNELS 3 Zrotation Xrotation Yrotation
                JOINT lRing2
                {
                  OFFSET 2.60934 -0.819778 -0.0198488
                  CHANNELS 3 Zrotation Xrotation Yrotation
                  End Site
                  {
                    OFFSET 2.33842 -0.294052 0.168128
                  }
                }
              }
              JOINT lPinky1
              {
                OFFSET 8.27202 -0.0477905 -0.4584
                CHANNELS 3 Zrotation Xrotation Yrotation
                JOINT lPinky2
                {
                  OFFSET 1.82734 -0.647385 -0.700984
                  CHANNELS 3 Zrotation Xrotation Yrotation
                  End Site
                  {
                    OFFSET 1.69225 -0.51767 -0.607171
                  }
                }
              }
            }
          }
        }
      }
    }
  }
  JOINT rButtock
  {
    OFFSET -8.77824 4.35084 1.2192
    CHANNELS 3 Zrotation Xrotation Yrotation
    JOINT rThigh
    {
      OFFSET 0 -1.70687 -2.19456
      CHANNELS 3 Zrotation Xrotation Yrotation
      JOINT rShin
      {
        OFFSET 0 -36.8199 0.73152
        CHANNELS 3 Zrotation Xrotation Yrotation
        JOINT rFoot
        {
          OFFSET 0.73152 -45.1104 -5.12064
          CHANNELS 3 Zrotation Xrotation Yrotation
          End Site
          {
            OFFSET -1.1221 -3.69964 12.103
          }
        }
      }
    }
  }
  JOINT lButtock
  {
    OFFSET 8.77824 4.35084 1.2192
    CHANNELS 3 Zrotation Xrotation Yrotation
    JOINT lThigh
    {
      OFFSET 0 -1.70687 -2.19456
      CHANNELS 3 Zrotation Xrotation Yrotation
      JOINT lShin
      {
        OFFSET 0 -36.8199 0.73152
        CHANNELS 3 Zrotation Xrotation Yrotation
        JOINT lFoot
        {
          OFFSET -0.73152 -45.1104 -5.12064
          CHANNELS 3 Zrotation Xrotation Yrotation
          End Site
          {
            OFFSET 1.1221 -3.69964 12.103
          }
        }
      }
    }
  }
}
MOTION
Frames:	6
Frame Time:	0.00833333
41.979 -0.418712 -114.705 0.0 0.0 0.0 -0.734937 -0.00369301 -0.0206932 -0.202629 -0.00499464 -0.0351079 -1.03319e-14 0.0 -7.45442e-17 -3.11564e-14 3.18055e-15 -2.73329e-16 -0.0 0.0 0.0 -0.0 0.0 0.0 -5.1202e-15 0.0 9.93923e-17 -1.06611e-13 9.31803e-17 -1.98785e-16 -1.86485e-12 5.55007e-13 -3.18055e-15 -2.13515e-11 -5.8142e-13 -1.97194e-13 -5.03643e-11 -6.20042e-14 -4.23014e-13 -8.69854e-11 -1.11319e-13 -7.29142e-13 -5.03585e-11 -6.20208e-14 -4.32555e-13 7.73091 5.47488 0.417314 -5.03656e-11 -6.24184e-14 -4.19833e-13 2.90554 0.965183 0.102902 -5.03571e-11 -6.1822e-14 -4.21424e-13 10.2786 0.731801 0.0259123 -5.03687e-11 -6.12257e-14 -4.10292e-13 2.22167 -0.733487 -0.20892 -5.21694e-15 0.0 -1.98785e-16 -1.10126e-13 2.73329e-16 -2.38542e-15 -1.86549e-12 -5.58982e-13 3.18055e-15 -2.13465e-11 5.51702e-13 -1.94014e-13 -5.03497e-11 -2.2441e-14 -4.23014e-13 -8.69397e-11 -3.81667e-14 -7.23576e-13 -5.03573e-11 -2.0276e-14 -4.13472e-13 -7.73091 5.47488 -0.417314 -5.03509e-11 -2.20651e-14 -4.23014e-13 -2.90554 0.965183 -0.102902 -5.03553e-11 -2.26615e-14 -4.22219e-13 -10.2786 0.731801 -0.0259123 -5.03484e-11 -2.10712e-14 -4.23014e-13 -2.22167 -0.733487 0.20892 -2.03217e-16 0.0 -3.88251e-19 -0.0357062 -2.13141 -0.0183419 -0.00889002 -1.69185 -0.0749799 -0.520984 3.82294 0.13803 2.03217e-16 0.0 3.88251e-19 -1.08523 -4.91166 0.0910983 0.00130393 3.34411 -0.00254286 0.533125 1.56735 -0.0930904
41.741 15.3036 -80.0056 0.3573 -2.5112 -24.5388 0.0493754 14.486 0.249521 0.714964 -0.398502 0.154171 -2.8101 -0.675318 -1.21691 4.74237 -5.14589 -0.73865 -0.0 0.0 0.0 -0.0 0.0 0.0 -1.04351e-14 2.73571e-14 -2.39136e-14 16.6215 15.8824 15.3622 -10.8473 -7.7279 12.8255 0.0105807 2.28208 0.319807 -1.6082e-10 2.49535e-10 -1.90702e-10 -2.7961e-10 4.22566e-10 -3.28101e-10 -1.60815e-10 2.49535e-10 -1.9071e-10 7.73091 5.47488 0.417314 -1.60821e-10 2.49542e-10 -1.90701e-10 2.90554 0.965183 0.102902 -1.60812e-10 2.49535e-10 -1.90701e-10 10.2786 0.731801 0.0259123 -1.60824e-10 2.49536e-10 -1.9069e-10 2.22167 -0.733487 -0.20892 -1.05001e-14 2.73583e-14 -2.4138e-14 -16.9623 16.9964 -15.9993 10.0675 -6.92809 -12.3472 -0.246141 11.0441 -1.45006 -2.79479e-11 2.09802e-10 3.52424e-10 -3.66224e-11 3.35274e-10 6.07383e-10 -2.79586e-11 2.0981e-10 3.52437e-10 -7.73091 5.47488 -0.417314 -2.79484e-11 2.09802e-10 3.52425e-10 -2.90554 0.965183 -0.102902 -2.79528e-11 2.09801e-10 3.52425e-10 -10.2786 0.731801 -0.0259123 -2.7947e-11 2.09803e-10 3.52425e-10 -2.22167 -0.733487 0.20892 -2.03217e-16 0.0 -3.88251e-19 -8.99797 -14.2771 -5.52629 3.0781 22.9438 -0.0257506 1.88466 -0.755672 1.23814 2.03217e-16 0.0 3.88251e-19 9.58096 -15.3571 5.72075 -2.89147 26.6544 -0.0436556 -0.762409 -3.78473 -4.67067
41.7327 15.3268 -80.0049 0.296 -2.5172 -24.5961 0.711134 29.8035 0.601196 1.68617 -0.813664 0.355338 -5.80693 -1.38966 -2.50499 9.61122 -10.564 -1.54554 -0.0 0.0 0.0 -0.0 0.0 0.0 -1.65343e-14 5.86402e-14 -5.06746e-14 24.3304 28.6938 35.1951 -18.5782 -14.5888 27.0784 -0.00602534 4.69646 0.659879 -2.92041e-10 5.40405e-10 -4.13156e-10 -5.08393e-10 9.15294e-10 -7.10875e-10 -2.92037e-10 5.40405e-10 -4.13162e-10 7.73091 5.47488 0.417314 -2.92042e-10 5.4042e-10 -4.13157e-10 2.90554 0.965183 0.102902 -2.92032e-10 5.40405e-10 -4.13155e-10 10.2786 0.731801 0.0259123 -2.92044e-10 5.40407e-10 -4.13145e-10 2.22167 -0.733487 -0.20892 -1.65644e-14 5.86427e-14 -5.08174e-14 -23.7856 30.3364 -37.184 17.4965 -13.1702 -25.9424 0.147724 22.6997 -3.17431 -6.62309e-12 4.58975e-10 7.56948e-10 1.3543e-11 7.346e-10 1.30464e-09 -6.63722e-12 4.58991e-10 7.56966e-10 -7.73091 5.47488 -0.417314 -6.62273e-12 4.58974e-10 7.5695e-10 -2.90554 0.965183 -0.102902 -6.62722e-12 4.58974e-10 7.5695e-10 -10.2786 0.731801 -0.0259123 -6.62256e-12 4.58975e-10 7.56951e-10 -2.22167 -0.733487 0.20892 -2.03217e-16 0.0 -3.88251e-19 -21.2672 -26.709 -12.3289 6.28301 48.9871 0.046484 4.61926 -5.59091 2.41305 2.03217e-16 0.0 3.88251e-19 23.3123 -25.9952 12.5406 -5.89451 51.2977 -0.123615 -3.06812 -9.33572 -9.61629
41.732 15.3149 -80.0033 0.3392 -2.5216 -24.6015 1.07913 43.4609 1.05556 2.55795 -1.18547 0.532832 -8.51635 -2.0223 -3.65274 13.8165 -15.4272 -2.28955 -0.0 0.0 0.0 -0.0 0.0 0.0 -2.10649e-14 8.20714e-14 -7.19395e-14 23.6758 32.8793 56.2454 -22.5925 -18.487 40.6106 -0.0451486 6.84539 0.965544 -3.81732e-10 7.4873e-10 -5.7126e-10 -6.6486e-10 1.26792e-09 -9.82846e-10 -3.81729e-10 7.48729e-10 -5.71265e-10 7.73091 5.47488 0.417314 -3.81733e-10 7.48751e-10 -5.71262e-10 2.90554 0.965183 0.102902 -3.81723e-10 7.48729e-10 -5.71259e-10 10.2786 0.731801 0.0259123 -3.81734e-10 7.48732e-10 -5.7125e-10 2.22167 -0.733487 -0.20892 -2.10664e-14 8.2075e-14 -7.20163e-14 -21.7482 33.7587 -59.6578 21.6226 -16.8951 -38.7233 1.21114 33.0389 -5.09515 1.68556e-11 6.29451e-10 1.05812e-09 6.40121e-11 1.0059e-09 1.8236e-09 1.68388e-11 6.29472e-10 1.05814e-09 -7.73091 5.47488 -0.417314 1.68567e-11 6.29449e-10 1.05812e-09 -2.90554 0.965183 -0.102902 1.68521e-11 6.29449e-10 1.05812e-09 -10.2786 0.731801 -0.0259123 1.68559e-11 6.2945e-10 1.05812e-09 -2.22167 -0.733487 0.20892 -2.03217e-16 0.0 -3.88251e-19 -35.323 -36.9933 -20.225 8.97202 72.2151 0.257835 7.22913 -9.89541 3.49065 2.03217e-16 0.0 3.88251e-19 38.1336 -34.77 20.0609 -8.36284 73.2748 -0.389087 -5.95704 -14.0988 -14.2326
41.7329 15.3008 -79.9929 0.3374 -2.5434 -24.5638 1.12142 52.9718 1.53049 3.17565 -1.44894 0.651046 -10.4461 -2.4542 -4.44769 16.6598 -18.9131 -2.80637 -0.0 0.0 0.0 -0.0 0.0 0.0 -2.1674e-14 8.58726e-14 -7.94642e-14 21.8661 30.6738 70.1019 -24.2143 -19.5028 50.2944 -0.085899 8.33153 1.17933 -3.67599e-10 7.50691e-10 -5.68489e-10 -6.40541e-10 1.2703e-09 -9.77808e-10 -3.67596e-10 7.50691e-10 -5.68492e-10 7.73091 5.47488 0.417314 -3.676e-10 7.50716e-10 -5.68492e-10 2.90554 0.965183 0.102902 -3.6759e-10 7.50691e-10 -5.68488e-10 10.2786 0.731801 0.0259123 -3.676e-10 7.50694e-10 -5.6848e-10 2.22167 -0.733487 -0.20892 -2.16625e-14 8.58773e-14 -7.95139e-14 -19.5677 30.3991 -73.7051 23.4307 -18.07 -47.856 2.49469 40.1747 -6.81477 4.57189e-11 6.03183e-10 1.10089e-09 1.15241e-10 9.57118e-10 1.8968e-09 4.57014e-11 6.03206e-10 1.10092e-09 -7.73091 5.47488 -0.417314 4.57205e-11 6.03181e-10 1.1009e-09 -2.90554 0.965183 -0.102902 4.57158e-11 6.03181e-10 1.1009e-09 -10.2786 0.731801 -0.0259123 4.57195e-11 6.03182e-10 1.1009e-09 -2.22167 -0.733487 0.20892 -2.03217e-16 0.0 -3.88251e-19 -47.4325 -43.3708 -27.3953 7.2205 88.4016 4.02164 9.14874 -12.8904 4.2674 2.03217e-16 0.0 3.88251e-19 50.2118 -40.2543 26.5016 -5.07534 88.5811 -5.5677 -8.45409 -17.2687 -17.622
41.7553 15.3117 -79.9761 0.401 -2.5235 -24.5651 1.07065 56.6798 1.72291 3.44063 -1.56235 0.683415 -11.257 -2.5975 -4.7428 17.7308 -20.4999 -2.94435 -0.0 0.0 0.0 -0.0 0.0 0.0 -1.58803e-14 5.62286e-14 -6.53182e-14 21.3646 28.7962 74.7688 -24.6979 -19.4863 54.0995 -0.104042 8.87673 1.25839 -1.6956e-10 3.91013e-10 -2.834e-10 -2.96068e-10 6.58516e-10 -4.86568e-10 -1.69559e-10 3.91015e-10 -2.83401e-10 7.73091 5.47488 0.417314 -1.69562e-10 3.91037e-10 -2.83403e-10 2.90554 0.965183 0.102902 -1.69552e-10 3.91016e-10 -2.83398e-10 10.2786 0.731801 0.0259123 -1.6956e-10 3.91018e-10 -2.8339e-10 2.22167 -0.733487 -0.20892 -1.58766e-14 5.62338e-14 -6.54009e-14 -19.298 27.9822 -78.1137 23.9767 -18.1644 -51.4212 3.14828 42.8998 -7.60183 9.34695e-11 2.18832e-10 7.04283e-10 1.84566e-10 3.23282e-10 1.21176e-09 9.34543e-11 2.18851e-10 7.04304e-10 -7.73091 5.47488 -0.417314 9.34716e-11 2.1883e-10 7.04285e-10 -2.90554 0.965183 -0.102902 9.34665e-11 2.1883e-10 7.04284e-10 -10.2786 0.731801 -0.0259123 9.34714e-11 2.18831e-10 7.04283e-10 -2.22167 -0.733487 0.20892 -2.03217e-16 0.0 -3.88251e-19 -52.8505 -45.5975 -30.6956 -166.462 85.256 178.494 9.92673 -14.0631 4.57879 2.03217e-16 0.0 3.88251e-19 55.325 -42.2711 29.3259 166.737 85.4294 -178.103 -9.55122 -18.4863 -19.0061
